<svg width="48" height="48" viewBox="0 0 48 48" fill="none" xmlns="http://www.w3.org/2000/svg">
<path d="M39.5 30.867V6.5C39.5 5.96957 39.2893 5.46086 38.9142 5.08579C38.5391 4.71071 38.0304 4.5 37.5 4.5H10.5C9.96957 4.5 9.46086 4.71071 9.08579 5.08579C8.71071 5.46086 8.5 5.96957 8.5 6.5V41.5C8.5 42.0304 8.71071 42.5391 9.08579 42.9142C9.46086 43.2893 9.96957 43.5 10.5 43.5H37.5C38.0304 43.5 38.5391 43.2893 38.9142 42.9142C39.2893 42.5391 39.5 42.0304 39.5 41.5V40.031" stroke="#0A3F8E" stroke-opacity="0.92" stroke-linecap="round" stroke-linejoin="round"/>
<path d="M37.134 37.66L21.288 21.775V17.25H25.92L41.705 33.078M13 10.5H35M13 17.25H21.288M32.652 24H35M13 24H23.508M13 30.75H29.989M13 37.5H35M44.315 37.985C44.6181 37.6808 44.7882 37.2689 44.7882 36.8395C44.7882 36.4101 44.6181 35.9982 44.315 35.694L41.705 33.078L37.135 37.66L39.745 40.276C39.8949 40.4261 40.0729 40.5452 40.2689 40.6264C40.4648 40.7076 40.6749 40.7495 40.887 40.7495C41.0991 40.7495 41.3092 40.7076 41.5051 40.6264C41.7011 40.5452 41.8791 40.4261 42.029 40.276L44.315 37.985Z" stroke="#0A3F8E" stroke-opacity="0.92" stroke-linecap="round" stroke-linejoin="round"/>
</svg>
