<svg width="40" height="35" viewBox="0 0 40 35" fill="none" xmlns="http://www.w3.org/2000/svg">
<path d="M2.10901 18C2.54609 14.04 4.28989 10.3385 7.06501 7.48L10.121 10.535L11.536 9.121L8.53501 6.121C11.4944 3.66991 15.163 2.2347 19 2.027V7H21V2.027C24.837 2.23463 28.5057 3.66985 31.465 6.121L28.585 9L30 10.414L32.935 7.479C35.7103 10.3378 37.4541 14.0397 37.891 18H33.684V20H38C38.0041 24.171 36.5519 28.2125 33.894 31.427L30.474 28.007L29.059 29.421L32.537 32.898L32.524 32.91L33.915 34.347C35.8423 32.4859 37.3745 30.2552 38.4201 27.7884C39.4656 25.3216 40.0029 22.6692 40 19.99C40 8.95 31.045 0 20 0C8.95501 0 1.30148e-05 8.949 1.30148e-05 19.99C-0.00600595 25.2596 2.07589 30.3169 5.79001 34.055L7.21001 32.648L7.19101 32.628L10.197 29.623L8.78301 28.209L5.86401 31.127C3.35777 27.96 1.99602 24.0387 2.00001 20H6.05301V18H2.10901Z" fill="#0A3F8E" fill-opacity="0.92"/>
<path d="M17.519 23.91C17.1328 23.9838 16.7868 24.1961 16.546 24.507L14.908 26.937C14.725 28.15 14.855 28.633 15.573 29.417L18.206 30.701C18.57 30.851 18.976 30.861 19.347 30.733L32.063 24.861C33.954 24.204 33.448 22.244 31.481 22.621L17.52 23.91H17.519Z" fill="#0A3F8E" fill-opacity="0.92"/>
</svg>
