<svg width="48" height="48" viewBox="0 0 48 48" fill="none" xmlns="http://www.w3.org/2000/svg">
<path d="M32 9C32 8.20435 32.3161 7.44129 32.8787 6.87868C33.4413 6.31607 34.2044 6 35 6H39C39.7956 6 40.5587 6.31607 41.1213 6.87868C41.6839 7.44129 42 8.20435 42 9V39C42 39.7956 41.6839 40.5587 41.1213 41.1213C40.5587 41.6839 39.7956 42 39 42H35C34.2044 42 33.4413 41.6839 32.8787 41.1213C32.3161 40.5587 32 39.7956 32 39V9ZM19 21C19 20.2044 19.3161 19.4413 19.8787 18.8787C20.4413 18.3161 21.2044 18 22 18H26C26.7956 18 27.5587 18.3161 28.1213 18.8787C28.6839 19.4413 29 20.2044 29 21V39C29 39.7956 28.6839 40.5587 28.1213 41.1213C27.5587 41.6839 26.7956 42 26 42H22C21.2044 42 20.4413 41.6839 19.8787 41.1213C19.3161 40.5587 19 39.7956 19 39V21ZM9 30C8.20435 30 7.44129 30.3161 6.87868 30.8787C6.31607 31.4413 6 32.2044 6 33V39C6 39.7956 6.31607 40.5587 6.87868 41.1213C7.44129 41.6839 8.20435 42 9 42H13C13.7956 42 14.5587 41.6839 15.1213 41.1213C15.6839 40.5587 16 39.7956 16 39V33C16 32.2044 15.6839 31.4413 15.1213 30.8787C14.5587 30.3161 13.7956 30 13 30H9Z" fill="#0A3F8E" fill-opacity="0.92"/>
</svg>
