<svg width="117" height="118" viewBox="0 0 117 118" fill="none" xmlns="http://www.w3.org/2000/svg">
<path d="M58.6 112.8C30.7 112.8 0.599998 95.3 0.599998 56.9C0.599998 18.5 30.7 1 58.6 1C74.1 1 88.4 6.1 99 15.4C110.5 25.6 116.6 40 116.6 56.9C116.6 73.8 110.5 88.1 99 98.3C88.4 107.6 74 112.8 58.6 112.8Z" fill="url(#paint0_radial_2_7)"/>
<path d="M58.6 112.8C30.7 112.8 0.599998 95.3 0.599998 56.9C0.599998 18.5 30.7 1 58.6 1C74.1 1 88.4 6.1 99 15.4C110.5 25.6 116.6 40 116.6 56.9C116.6 73.8 110.5 88.1 99 98.3C88.4 107.6 74 112.8 58.6 112.8Z" fill="url(#paint1_linear_2_7)"/>
<path d="M106.49 23.67C111.82 32.27 114.6 42.51 114.6 53.9C114.6 70.8 108.5 85.1 97 95.3C86.4 104.6 72 109.8 56.6 109.8C38.54 109.8 19.6 102.45 8.42 86.86C19.18 104.52 39.42 112.8 58.6 112.8C74 112.8 88.4 107.6 99 98.3C110.5 88.1 116.6 73.8 116.6 56.9C116.6 44.16 113.13 32.84 106.49 23.67V23.67Z" fill="#EB8F00"/>
<path d="M1.36 69.1C-0.459998 71.31 3.41 77.18 4.1 80.17C5.76 87.39 4.1 89.17 3.97 95.59C3.86 102.65 5.97 108.59 11.35 112.38C16.41 115.97 22.51 117.81 30.31 115.51C38.11 113.21 42.85 110.67 43.25 106.83C43.47 105.24 42.63 103.68 41.17 103C41.95 102.63 42.57 102 42.92 101.21C44.78 96.77 41.07 95.83 41.07 95.83C41.58 95.22 42.01 94.55 42.35 93.83C43.46 91.62 43.28 88.62 40.08 87.64C38.61 87.19 38.21 87.43 38.21 87.43C39.73 85.87 41.55 84.62 43.56 83.78C48.94 81.47 55.32 80.07 56.91 78.72C59.22 76.72 59.36 72.87 55.28 71.72C49.42 70 38.64 74 32.08 78.17C25.52 82.34 19.5 84.59 17.5 83.83C15.5 83.07 14.26 81.83 13.5 78.83C12.09 73.25 11 71.09 8.61 69C6.63 67.3 2.76 67.4 1.36 69.1V69.1Z" fill="url(#paint2_radial_2_7)"/>
<path d="M59.19 74.38C58.52 65.22 40.48 70.88 31.27 76.91C19.82 84.41 18.14 83.08 17.02 82.38C15.67 81.54 14.82 80.84 14.16 78.24C12.67 72.36 12.26 70.2 9.58 67.86C7.34 65.79 0.589998 65.84 0.139998 69.12C-0.350002 72.65 1.65 73.31 3 80.1C4.67 86.98 4 94.58 4 94.58C4 94.58 7.12 87.33 4.12 76.03C3.51 72.98 0.609999 68.31 5.51 68.84C10.25 69.35 10.56 73.48 12.04 79.19C12.86 82.42 13.7 84.32 16.96 85.22C20.2 86.11 27.69 81.95 33.07 78.53C39.66 74.34 49.43 70.68 54.56 72.18C56.78 72.66 58.26 75.53 55.93 77.56C52.23 81.05 38 82.62 29.43 91.89C29.43 91.89 30.47 92.27 32.03 91.5C33.6 90.73 39.46 87.83 39.46 87.83C41.21 88.57 42.05 91.48 41.1 93.03C39.56 95.54 33.57 99.01 30.58 98.86C30.58 98.86 30.53 100.39 33.53 99.98C34.48 99.85 38.41 98.99 41.16 96.86C43.21 98.34 42.63 100.86 41.09 102.68C39.56 104.49 35.82 106.83 31.97 107.24C31.97 107.24 31.59 108.7 34.18 108.67C36.77 108.64 39.58 107.32 41.65 105.71C41.96 106.2 42.25 107.27 41.9 108.74C41.36 111.01 38.31 113.31 32.42 114.59C26.99 115.77 20.87 116.6 9.06 110.47C9.06 110.47 13.47 116.2 24.98 117.22C36.02 118.2 48.91 113.31 43.74 103.5C43.74 103.5 44.86 101.84 45 99.56C45.1 98 44.61 95.87 43.46 94.9C44.54 91.72 44.2 89.52 43.51 88.22C43.05 87.36 41.89 86.52 41.89 86.52C41.89 86.52 44.18 84.45 50.93 82.71C55.26 81.58 59.6 79.98 59.19 74.38V74.38Z" fill="#EB8F00"/>
<path d="M13.64 76.13C13.64 76.13 18.47 83.99 29.11 78.29C29.11 78.29 22.58 85.14 17.5 83.83C12.42 82.52 13.64 76.13 13.64 76.13ZM44 89.54C44 89.54 46.46 84.26 50.94 82.69C50.94 82.69 43.66 83.31 40.89 86.3L44 89.54Z" fill="#EB8F00"/>
<path d="M71.87 65.31C71.55 65.25 71.25 65.12 71 64.91C66.4922 61.2939 61.1119 58.9279 55.4 58.05C49.69 57.06 43.83 57.6 38.4 59.61C38.1 59.73 37.78 59.77 37.46 59.72C36.76 59.6 36.19 59.08 36 58.39C35.81 57.71 36.04 56.99 36.58 56.54C47.18 47.74 62.9 49.2 71.7 59.8C72.42 60.67 73.08 61.59 73.68 62.54C74.06 63.13 74.06 63.89 73.68 64.48C73.29 65.09 72.58 65.41 71.87 65.31V65.31ZM75.77 25.11C79.96 25.11 83.77 28.65 83.77 34.53C83.77 40.41 79.96 43.94 75.77 43.94C71.58 43.94 67.77 40.4 67.77 34.53C67.77 28.66 71.58 25.11 75.77 25.11ZM41.14 16C36.95 16 33.14 19.54 33.14 25.41C33.14 31.28 36.95 34.83 41.14 34.83C45.34 34.83 49.14 31.29 49.14 25.41C49.14 19.53 45.34 16 41.14 16V16ZM34.73 4.63001C34.28 3.89001 34.22 2.97001 34.57 2.18001C34.95 1.39001 35.7 0.850008 36.57 0.740008C42.02 -0.109992 47.58 1.18001 52.1 4.33001C53.79 5.49001 55.29 6.89001 56.56 8.50001C56.64 8.60001 56.71 8.71001 56.78 8.83001C57.46 9.89001 57.23 11.29 56.25 12.08C55.7406 12.5018 55.0963 12.7259 54.4351 12.7112C53.7739 12.6965 53.1402 12.444 52.65 12L53.07 11.32L52.56 11.92C48.1833 8.25875 42.7035 6.17391 37 6.00001C36.05 6.00001 35.17 5.50001 34.69 4.68001L34.73 4.63001V4.63001ZM88 22.52C88.3654 22.3161 88.6773 22.0286 88.9102 21.681C89.1431 21.3333 89.2904 20.9355 89.34 20.52C89.3714 20.0931 89.2965 19.665 89.122 19.2741C88.9475 18.8832 88.6788 18.5417 88.34 18.28C84.01 14.83 78.51 13.18 73 13.7C70.96 13.87 68.96 14.35 67.06 15.12L66.7 15.29C65.59 15.88 65.1 17.21 65.56 18.38C65.7945 18.9936 66.2414 19.5026 66.8195 19.8146C67.3976 20.1266 68.0684 20.2208 68.71 20.08V19.28L68.85 20.06C74.45 19.02 80.24 19.89 85.29 22.53C86.12 23 87.13 23 87.96 22.53L88 22.52V22.52Z" fill="#422B0D"/>
<path d="M40.96 19.15C39.93 18.43 38.38 18.66 37.38 20.1C36.38 21.55 36.71 23.07 37.74 23.79C38.77 24.51 40.32 24.28 41.32 22.84C42.32 21.39 41.99 19.87 40.96 19.15ZM75.57 27.71C74.54 26.99 72.99 27.22 71.99 28.66C70.99 30.11 71.32 31.63 72.35 32.35C73.38 33.07 74.93 32.84 75.93 31.4C76.94 29.95 76.61 28.43 75.57 27.71Z" fill="#896024"/>
<defs>
<radialGradient id="paint0_radial_2_7" cx="0" cy="0" r="1" gradientUnits="userSpaceOnUse" gradientTransform="translate(58.6 56.9) scale(56.96 56.96)">
<stop offset="0.5" stop-color="#FDE030"/>
<stop offset="0.92" stop-color="#F7C02B"/>
<stop offset="1" stop-color="#F4A223"/>
</radialGradient>
<linearGradient id="paint1_linear_2_7" x1="58.6" y1="112.8" x2="58.6" y2="1" gradientUnits="userSpaceOnUse">
<stop stop-color="#F4A223"/>
<stop offset="0.08" stop-color="#F7C02B"/>
<stop offset="0.54" stop-color="#FDE030" stop-opacity="0"/>
</linearGradient>
<radialGradient id="paint2_radial_2_7" cx="0" cy="0" r="1" gradientUnits="userSpaceOnUse" gradientTransform="translate(36.45 77.5144) scale(59.432 55.8661)">
<stop offset="0.27" stop-color="#FFF176"/>
<stop offset="1" stop-color="#FFC400"/>
</radialGradient>
</defs>
</svg>
